<svg width="30" height="29" viewBox="0 0 30 29" fill="none" xmlns="http://www.w3.org/2000/svg">
<path d="M15 26.3541C21.9036 26.3541 27.5 20.9909 27.5 14.375C27.5 7.75907 21.9036 2.39581 15 2.39581C8.09644 2.39581 2.5 7.75907 2.5 14.375C2.5 20.9909 8.09644 26.3541 15 26.3541Z" stroke="black" stroke-width="2" stroke-linecap="round" stroke-linejoin="round"/>
<path d="M5.34131 6.75189C7.99281 8.92994 9.31856 11.471 9.31856 14.375C9.31856 17.2791 7.99281 19.8201 5.34131 21.9981" stroke="black" stroke-width="2" stroke-linecap="round" stroke-linejoin="round"/>
<path d="M24.659 21.9981C22.0074 19.8201 20.6816 17.2791 20.6816 14.375C20.6816 11.471 22.0074 8.92994 24.659 6.75189" stroke="black" stroke-width="2" stroke-linecap="round" stroke-linejoin="round"/>
<path d="M2.5 14.375H27.5" stroke="black" stroke-width="2" stroke-linecap="round" stroke-linejoin="round"/>
<path d="M15 2.39581V26.3541" stroke="black" stroke-width="2" stroke-linecap="round" stroke-linejoin="round"/>
</svg>
