<svg width="35" height="35" viewBox="0 0 35 35" fill="none" xmlns="http://www.w3.org/2000/svg">
<path d="M6.56242 8.75008C8.17325 8.75008 9.47909 7.44425 9.47909 5.83341C9.47909 4.22258 8.17325 2.91675 6.56242 2.91675C4.95159 2.91675 3.64575 4.22258 3.64575 5.83341C3.64575 7.44425 4.95159 8.75008 6.56242 8.75008Z" stroke="#333333" stroke-width="2"/>
<path d="M9.47909 13.1251H3.64575V31.3542H9.47909V13.1251Z" stroke="#333333" stroke-width="2" stroke-linejoin="round"/>
<path d="M15.3125 20.0521V31.3542H20.4167V21.1458C20.4167 19.3229 21.5104 17.8646 23.3333 17.8646C25.1562 17.8646 26.25 19.6875 26.25 21.1458V31.3542H31.3542V20.0521C31.3542 17.8646 28.8021 13.125 23.3333 13.125C17.8646 13.125 15.3125 17.8646 15.3125 20.0521Z" stroke="#333333" stroke-width="2" stroke-linejoin="round"/>
</svg>
