<svg width="30" height="29" viewBox="0 0 30 29" fill="none" xmlns="http://www.w3.org/2000/svg">
<path fill-rule="evenodd" clip-rule="evenodd" d="M7.5 14.375C10.625 14.375 12.5 12.6979 12.5 10.1823C12.5 7.66668 10.625 5.98959 7.5 5.98959C4.375 5.98959 2.5 5.98959 2.5 5.98959V14.375H7.5Z" stroke="black" stroke-width="2" stroke-linecap="round" stroke-linejoin="round"/>
<path fill-rule="evenodd" clip-rule="evenodd" d="M8.1445 23.9583C11.5855 23.9583 13.75 22.1615 13.75 19.1667C13.75 16.1719 11.5855 14.375 8.1445 14.375H2.5V23.9583H8.1445Z" stroke="black" stroke-width="2" stroke-linecap="round" stroke-linejoin="round"/>
<path d="M18.125 18.5677H27.5C27.5 16.1719 26.25 13.1771 22.5 13.1771C19.375 13.1771 17.5 15.5729 17.5 18.5677C17.5 21.5625 19.375 23.9583 22.5 23.9583C25.625 23.9583 26.875 22.1615 26.875 22.1615" stroke="black" stroke-width="2" stroke-linecap="round" stroke-linejoin="round"/>
<path d="M26.25 8.98438H18.75" stroke="black" stroke-width="2" stroke-linecap="round" stroke-linejoin="round"/>
</svg>
