<svg width="30" height="29" viewBox="0 0 30 29" fill="none" xmlns="http://www.w3.org/2000/svg">
<path d="M21.25 3.59375H8.75C5.98857 3.59375 3.75 5.73905 3.75 8.38542V20.3646C3.75 23.011 5.98857 25.1562 8.75 25.1562H21.25C24.0114 25.1562 26.25 23.011 26.25 20.3646V8.38542C26.25 5.73905 24.0114 3.59375 21.25 3.59375Z" stroke="black" stroke-width="2" stroke-linejoin="round"/>
<path d="M15 19.1667C17.7614 19.1667 20 17.0214 20 14.375C20 11.7286 17.7614 9.58334 15 9.58334C12.2386 9.58334 10 11.7286 10 14.375C10 17.0214 12.2386 19.1667 15 19.1667Z" stroke="black" stroke-width="2" stroke-linejoin="round"/>
<path d="M21.875 8.98436C22.5654 8.98436 23.125 8.44806 23.125 7.78645C23.125 7.12484 22.5654 6.58853 21.875 6.58853C21.1846 6.58853 20.625 7.12484 20.625 7.78645C20.625 8.44806 21.1846 8.98436 21.875 8.98436Z" fill="black"/>
</svg>
