<svg width="35" height="35" viewBox="0 0 35 35" fill="none" xmlns="http://www.w3.org/2000/svg">
<path fill-rule="evenodd" clip-rule="evenodd" d="M17.5 2.91667C9.44584 2.91667 2.91667 9.44584 2.91667 17.5C2.91667 25.5542 9.44584 32.0833 17.5 32.0833C25.5542 32.0833 32.0833 25.5542 32.0833 17.5C32.0833 9.44584 25.5542 2.91667 17.5 2.91667ZM0 17.5C0 7.83504 7.83504 0 17.5 0C27.165 0 35 7.83504 35 17.5C35 27.165 27.165 35 17.5 35C7.83504 35 0 27.165 0 17.5Z" fill="#333333"/>
<path fill-rule="evenodd" clip-rule="evenodd" d="M13.9879 33.1564C13.8468 32.9743 13.8468 31.3522 13.9879 28.2902C12.4772 28.3424 11.5227 28.2376 11.1245 27.9757C10.5271 27.5829 9.92911 26.3716 9.39842 25.5178C8.86781 24.6641 7.69013 24.5292 7.21453 24.3383C6.73895 24.1474 6.61956 23.3695 8.52503 23.9579C10.4304 24.5462 10.5234 26.1484 11.1245 26.5231C11.7256 26.8977 13.1627 26.7338 13.814 26.4337C14.4655 26.1336 14.4175 25.0161 14.5337 24.5734C14.6805 24.1602 14.1629 24.0686 14.1516 24.0652C13.5156 24.0652 10.1748 23.3387 9.25726 20.1036C8.3396 16.8685 9.52165 14.754 10.1522 13.8451C10.5727 13.239 10.5355 11.9475 10.0407 9.97041C11.837 9.74087 13.2233 10.3063 14.1995 11.6667C14.2004 11.6745 15.4792 10.9063 17.5003 10.9063C19.5214 10.9063 20.2384 11.5321 20.7917 11.6667C21.3451 11.8014 21.7876 9.28528 25.2051 9.97041C24.4916 11.3727 23.8941 13.1251 24.3501 13.8451C24.8062 14.565 26.5961 16.8545 25.4966 20.1036C24.7636 22.2697 23.3227 23.5902 21.174 24.0652C20.9276 24.1438 20.8043 24.2707 20.8043 24.4457C20.8043 24.7083 21.1375 24.7369 21.6174 25.9669C21.9373 26.7868 21.9604 29.1288 21.6867 32.9926C20.9933 33.1691 20.4538 33.2876 20.0683 33.3482C19.3848 33.4556 18.6427 33.5159 17.9135 33.5391C17.1843 33.5624 16.9311 33.5597 15.9229 33.4659C15.2509 33.4033 14.6059 33.3002 13.9879 33.1564Z" fill="#333333"/>
</svg>
